# xmcd
#
# Track frame offsets:
#	150
#	3327
#	25035
#	47137
#	63523
#	84418
#	105657
#	132158
#	149867
#	168633
#	190609
#
# Disc length: 3029 seconds
#
# Revision: 1
# Processed by: cddbd v1.5.2PL0 Copyright (c) Steve Scherf et al.
# Submitted via: EasyCDDAExtractor 10.5.1.1
#
DISCID=920bd30b
DTITLE=Беzумные усилия - Спираль молчания
DYEAR=2007
DGENRE=Alternative
TTITLE0=Страх падения
TTITLE1=Со дна слепой Души
TTITLE2=Кислород
TTITLE3=Две смерти
TTITLE4=Сквозь огонь
TTITLE5=Осознание
TTITLE6=Воздух свободы
TTITLE7=Сам за себя
TTITLE8=Твое сердце (Реприза)
TTITLE9=Спираль молчания
TTITLE10=На краю Земли
EXTD=
EXTT0=
EXTT1=
EXTT2=
EXTT3=
EXTT4=
EXTT5=
EXTT6=
EXTT7=
EXTT8=
EXTT9=
EXTT10=
PLAYORDER=
